<svg id="Capa_1" enable-background="new 0 0 510 510" height="512" viewBox="0 0 510 510" width="512" xmlns="http://www.w3.org/2000/svg" xmlns:xlink="http://www.w3.org/1999/xlink"><linearGradient id="lg1"><stop offset="0" stop-color="#b5dbff"/><stop offset="1" stop-color="#76e2f8"/></linearGradient><linearGradient id="SVGID_1_" gradientUnits="userSpaceOnUse" x1="42.275" x2="428.466" xlink:href="#lg1" y1="148.394" y2="534.585"/><linearGradient id="lg2"><stop offset="0" stop-color="#edf5ff"/><stop offset="1" stop-color="#d5e8fe"/></linearGradient><linearGradient id="SVGID_2_" gradientUnits="userSpaceOnUse" x1="119.313" x2="406.078" xlink:href="#lg2" y1="109.422" y2="396.188"/><linearGradient id="SVGID_3_" gradientUnits="userSpaceOnUse" x1="249.102" x2="535.867" xlink:href="#lg2" y1="-20.367" y2="266.399"/><linearGradient id="SVGID_4_" gradientUnits="userSpaceOnUse" x1="169.707" x2="555.898" xlink:href="#lg1" y1="20.963" y2="407.154"/><linearGradient id="SVGID_5_" gradientUnits="userSpaceOnUse" x1="188.936" x2="575.127" xlink:href="#lg1" y1="1.733" y2="387.924"/><linearGradient id="SVGID_6_" gradientUnits="userSpaceOnUse" x1="141.108" x2="427.874" xlink:href="#lg2" y1="87.627" y2="374.392"/><linearGradient id="SVGID_7_" gradientUnits="userSpaceOnUse" x1="39.996" x2="326.761" xlink:href="#lg2" y1="188.74" y2="475.505"/><linearGradient id="SVGID_8_" gradientUnits="userSpaceOnUse" x1="167.427" x2="454.192" xlink:href="#lg2" y1="61.308" y2="348.074"/><linearGradient id="SVGID_9_" gradientUnits="userSpaceOnUse" x1="20.766" x2="307.531" xlink:href="#lg2" y1="207.969" y2="494.735"/><linearGradient id="SVGID_10_" gradientUnits="userSpaceOnUse" x1="68.594" x2="454.785" xlink:href="#lg1" y1="122.075" y2="508.266"/><linearGradient id="SVGID_11_" gradientUnits="userSpaceOnUse" x1="-39.4" x2="346.791" xlink:href="#lg1" y1="230.069" y2="616.26"/><linearGradient id="SVGID_12_" gradientUnits="userSpaceOnUse" x1="90.39" x2="476.58" xlink:href="#lg1" y1="100.28" y2="486.471"/><linearGradient id="SVGID_13_" gradientUnits="userSpaceOnUse" x1="141.088" x2="335.647" y1="50.701" y2="399.639"><stop offset="0" stop-color="#b5dbff"/><stop offset="1" stop-color="#48b2e3"/></linearGradient><linearGradient id="lg3"><stop offset="0" stop-color="#b5dbff" stop-opacity="0"/><stop offset=".1734" stop-color="#8fc5e9" stop-opacity=".173"/><stop offset=".4541" stop-color="#56a4c8" stop-opacity=".454"/><stop offset=".6955" stop-color="#2d8db1" stop-opacity=".696"/><stop offset=".8853" stop-color="#147ea2" stop-opacity=".885"/><stop offset="1" stop-color="#0b799d"/></linearGradient><linearGradient id="SVGID_14_" gradientUnits="userSpaceOnUse" x1="361.49" x2="3.036" xlink:href="#lg3" y1="286.715" y2="150.312"/><linearGradient id="SVGID_15_" gradientUnits="userSpaceOnUse" x1="259.591" x2="31.195" xlink:href="#lg3" y1="406.051" y2="230.525"/><linearGradient id="lg4"><stop offset="0" stop-color="#0b799d"/><stop offset="1" stop-color="#07485e"/></linearGradient><linearGradient id="SVGID_16_" gradientUnits="userSpaceOnUse" x1="35.606" x2="125.483" xlink:href="#lg4" y1="236.001" y2="316.362"/><linearGradient id="SVGID_17_" gradientUnits="userSpaceOnUse" x1="517.629" x2="414.7" xlink:href="#lg3" y1="342.719" y2="239.79"/><linearGradient id="SVGID_18_" gradientUnits="userSpaceOnUse" x1="394.819" x2="467.778" xlink:href="#lg4" y1="202.996" y2="267.497"/><g><g><path d="m265.574 477.768 6.792-2.018c17.292-5.136 34.088-18.215 48.576-37.823 13.864-18.763 25.714-43.596 34.268-71.809l2.527-8.337-8.561 1.607c-24.882 4.667-51.281 7.425-78.465 8.197l-5.137.146z" fill="url(#SVGID_1_)"/><path d="m472.327 308.832-12.922 9.023c-9.976 6.965-21.676 13.401-34.779 19.128-12.356 5.401-26.018 10.218-40.606 14.315l-2.96.831-.741 2.983c-6.482 26.085-15.411 49.741-26.539 70.311-5.263 9.728-11.033 18.744-17.151 26.796l-12.141 15.983 18.439-7.927c59.259-25.477 104.65-75.212 124.534-136.452z" fill="url(#SVGID_2_)"/><path d="m380.318 154.888.741 2.983 2.96.831c14.589 4.097 28.25 8.914 40.606 14.315 13.103 5.727 24.804 12.163 34.779 19.128l12.922 9.023-4.867-14.99c-19.884-61.241-65.275-110.975-124.534-136.452l-18.439-7.927 12.141 15.983c6.117 8.052 11.887 17.068 17.151 26.796 11.129 20.569 20.058 44.224 26.54 70.31z" fill="url(#SVGID_3_)"/><path d="m394.187 183.973-8.227-2.782 1.306 8.585c3.218 21.141 4.849 43.084 4.849 65.223s-1.632 44.083-4.849 65.223l-1.306 8.585 8.227-2.782c52.686-17.816 84.139-44.368 84.139-71.027s-31.454-53.209-84.139-71.025z" fill="url(#SVGID_4_)"/><path d="m272.366 34.25-6.792-2.018v110.038l5.137.146c27.183.771 53.583 3.529 78.465 8.197l8.561 1.607-2.527-8.337c-8.554-28.214-20.404-53.046-34.268-71.809-14.487-19.609-31.284-32.688-48.576-37.824z" fill="url(#SVGID_5_)"/><path d="m265.574 346.584 5.444-.161c31.333-.929 61.179-4.557 88.708-10.781l3.366-.761.658-3.388c4.789-24.673 7.218-50.409 7.218-76.492s-2.429-51.819-7.218-76.492l-.658-3.388-3.366-.761c-27.529-6.225-57.375-9.852-88.708-10.781l-5.444-.161z" fill="url(#SVGID_6_)"/><path d="m115.813 326.027 8.227 2.782-1.306-8.585c-3.218-21.141-4.849-43.085-4.849-65.223s1.632-44.083 4.849-65.223l1.306-8.585-8.227 2.782c-52.685 17.814-84.138 44.366-84.138 71.025s31.453 53.211 84.138 71.027z" fill="url(#SVGID_7_)"/><path d="m244.426 32.232-6.792 2.018c-17.292 5.136-34.088 18.215-48.576 37.823-13.864 18.763-25.714 43.596-34.268 71.809l-2.527 8.337 8.561-1.607c24.882-4.667 51.281-7.425 78.464-8.197l5.137-.146v-110.037z" fill="url(#SVGID_8_)"/><path d="m237.634 475.75 6.792 2.018v-110.039l-5.137-.146c-27.183-.771-53.583-3.529-78.464-8.197l-8.561-1.607 2.527 8.337c8.554 28.214 20.404 53.046 34.268 71.809 14.486 19.61 31.283 32.689 48.575 37.825z" fill="url(#SVGID_9_)"/><path d="m244.426 163.416-5.444.161c-31.333.929-61.179 4.557-88.708 10.781l-3.366.761-.658 3.388c-4.789 24.673-7.218 50.409-7.218 76.492s2.429 51.819 7.218 76.492l.658 3.388 3.366.761c27.529 6.225 57.375 9.852 88.708 10.781l5.444.161z" fill="url(#SVGID_10_)"/><path d="m167.074 460.275 18.439 7.927-12.141-15.983c-6.116-8.052-11.886-17.068-17.151-26.796-11.128-20.57-20.057-44.226-26.539-70.311l-.741-2.983-2.96-.831c-14.589-4.097-28.25-8.914-40.606-14.315-13.103-5.727-24.803-12.163-34.779-19.128l-12.922-9.023 4.867 14.99c19.882 61.241 65.274 110.975 124.533 136.453z" fill="url(#SVGID_11_)"/><path d="m85.374 173.017c12.356-5.401 26.017-10.218 40.606-14.315l2.96-.831.741-2.983c6.482-26.086 15.411-49.741 26.539-70.311 5.264-9.728 11.034-18.744 17.151-26.796l12.141-15.983-18.439 7.927c-59.258 25.478-104.65 75.212-124.533 136.453l-4.867 14.99 12.922-9.023c9.975-6.965 21.676-13.401 34.779-19.128z" fill="url(#SVGID_12_)"/></g><path d="m431.607 78.393c-47.173-47.174-109.894-73.153-176.607-73.153s-129.434 25.979-176.607 73.153-73.153 109.894-73.153 176.607 25.979 129.434 73.153 176.607 109.894 73.153 176.607 73.153 129.434-25.979 176.607-73.153 73.153-109.894 73.153-176.607-25.979-129.434-73.153-176.607zm-287.288 176.607c0-26.379 2.531-51.839 7.121-75.484 25.93-5.863 55.453-9.698 87.699-10.654v172.275c-32.247-.956-61.769-4.79-87.699-10.654-4.59-23.644-7.121-49.104-7.121-75.483zm-26.812 66.019c-50.4-17.044-80.545-42.316-80.545-66.019s30.145-48.975 80.545-66.019c-3.234 21.25-4.909 43.413-4.909 66.019s1.674 44.769 4.909 66.019zm232.643-175.602c-24.985-4.687-51.712-7.503-79.289-8.285v-97.814c33.364 9.911 62.416 50.447 79.289 106.099zm-111.011-106.099v97.814c-27.577.782-54.304 3.598-79.289 8.285 16.873-55.652 45.925-96.188 79.289-106.099zm0 333.55v97.814c-33.364-9.911-62.417-50.447-79.289-106.099 24.985 4.687 51.713 7.503 79.289 8.285zm31.722 97.814v-97.814c27.577-.782 54.304-3.598 79.289-8.285-16.873 55.652-45.925 96.188-79.289 106.099zm0-129.544v-172.276c32.247.956 61.769 4.79 87.699 10.654 4.59 23.645 7.121 49.105 7.121 75.484s-2.531 51.839-7.121 75.484c-25.93 5.863-55.453 9.698-87.699 10.654zm121.632-152.157c50.4 17.044 80.545 42.316 80.545 66.019s-30.145 48.975-80.545 66.019c3.234-21.25 4.909-43.413 4.909-66.019s-1.674-44.769-4.909-66.019zm69.938-1.17c-10.187-7.114-22.105-13.701-35.688-19.638-12.713-5.557-26.56-10.422-41.294-14.561-6.518-26.23-15.599-50.44-27.021-71.551-5.467-10.106-11.354-19.268-17.59-27.479 57.392 24.675 102.136 73.303 121.593 133.229zm-293.269-133.228c-6.236 8.211-12.123 17.373-17.59 27.479-11.422 21.112-20.502 45.321-27.021 71.551-14.734 4.138-28.581 9.003-41.294 14.561-13.582 5.937-25.501 12.523-35.688 19.638 19.457-59.927 64.201-108.555 121.593-133.229zm-121.593 267.606c10.187 7.114 22.105 13.701 35.688 19.638 12.713 5.557 26.56 10.422 41.294 14.561 6.518 26.23 15.599 50.44 27.021 71.551 5.467 10.106 11.354 19.268 17.59 27.479-57.392-24.675-102.136-73.303-121.593-133.229zm293.269 133.228c6.236-8.211 12.123-17.373 17.59-27.479 11.422-21.112 20.502-45.321 27.021-71.551 14.734-4.138 28.581-9.003 41.294-14.561 13.582-5.937 25.501-12.523 35.688-19.638-19.457 59.927-64.201 108.555-121.593 133.229z" fill="url(#SVGID_13_)"/><path d="m431.607 431.607c47.174-47.173 73.153-109.894 73.153-176.607s-25.979-129.434-73.153-176.607-109.894-73.153-176.607-73.153v499.52c66.713 0 129.434-25.979 176.607-73.153z" fill="url(#SVGID_14_)"/><path d="m432.742 430.445-249.993-249.993c-2.695-4.902-7.904-5.214-14.238-5.123l-95.97 2.44c-12.56.181-15.777 9.884-8.951 20.429l10.512 16.235c-27.647 22.097-53.319 51.88-64.813 85.647 8.983 49.551 32.737 95.161 69.103 131.527 47.174 47.174 109.895 73.153 176.608 73.153s129.434-25.979 176.607-73.153c.384-.383.754-.776 1.135-1.162z" fill="url(#SVGID_15_)"/><path d="m73.101 425.982c-4.047-12.598-10.102-59.515-9.645-73.54 1.106-33.923 16.633-64.301 40.566-85.261l10.769 16.633c6.827 10.544 22.591 9.451 27.896-1.935l40.538-86.999c4.978-10.683-2.929-22.895-14.714-22.726l-95.97 1.382c-12.56.181-20.009 14.116-13.183 24.661l10.512 16.235c-40.992 32.765-68.374 82.413-69.853 136.917-.156 5.756.797 14.657 2.273 24.595 5.026 33.834 37.25 56.649 70.811 50.038z" fill="url(#SVGID_16_)"/><path d="m437.023 83.996c-.041.008-.083.014-.124.022 4.047 12.598 10.102 59.515 9.645 73.54-1.054 32.322-15.205 61.418-37.239 82.223l-14.765-14.555c-7.138-9.506-22.088-8.134-27.227 2.895l-40.538 86.999c-3.392 7.279-.799 15.265 4.924 19.563l98.398 98.398c.502-.493 1.011-.975 1.509-1.473 47.175-47.174 73.154-109.895 73.154-176.608 0-64.109-24.002-124.523-67.737-171.004z" fill="url(#SVGID_17_)"/><path d="m436.899 84.018c4.047 12.598 10.102 59.515 9.645 73.54-1.106 33.923-16.633 64.301-40.566 85.261l-10.769-16.633c-6.827-10.544-22.591-9.451-27.896 1.935l-40.538 86.999c-4.978 10.683 2.929 22.895 14.714 22.726l95.97-1.382c12.56-.181 20.009-14.116 13.183-24.661l-10.512-16.235c40.992-32.763 68.374-82.411 69.854-136.915.156-5.756-.797-14.657-2.273-24.595-5.027-33.836-37.251-56.651-70.812-50.04z" fill="url(#SVGID_18_)"/></g></svg>