<svg xmlns="http://www.w3.org/2000/svg" height="512pt" version="1.1" viewBox="-13 0 512 512.00001" width="512pt">
<g id="surface1">
<path d="M 247.128906 300.175781 L 247.128906 512 L 317.738281 512 L 317.738281 370.78125 C 317.738281 331.789062 286.125 300.175781 247.128906 300.175781 Z M 247.128906 300.175781 " style=" stroke:none;fill-rule:nonzero;fill:rgb(58.823529%,61.568627%,92.941176%);fill-opacity:1;" />
<path d="M 176.519531 370.78125 L 176.519531 512 L 247.128906 512 L 247.128906 300.175781 C 208.132812 300.175781 176.519531 331.789062 176.519531 370.78125 Z M 176.519531 370.78125 " style=" stroke:none;fill-rule:nonzero;fill:rgb(48.627451%,51.764706%,90.980392%);fill-opacity:1;" />
<path d="M 247.128906 0 L 247.128906 238.390625 L 485.425781 238.390625 Z M 247.128906 0 " style=" stroke:none;fill-rule:nonzero;fill:rgb(60%,62.352941%,92.941176%);fill-opacity:1;" />
<path d="M 247.128906 238.390625 L 247.128906 300.175781 C 286.125 300.175781 317.738281 331.789062 317.738281 370.78125 L 317.738281 512 L 458.953125 512 L 458.953125 238.621094 L 485.433594 238.390625 Z M 247.128906 238.390625 " style=" stroke:none;fill-rule:nonzero;fill:rgb(76.470588%,78.039216%,95.686275%);fill-opacity:1;" />
<path d="M 247.128906 0 L 0 238.390625 L 247.128906 238.390625 Z M 247.128906 0 " style=" stroke:none;fill-rule:nonzero;fill:rgb(43.137255%,46.27451%,89.803922%);fill-opacity:1;" />
<path d="M 35.304688 238.390625 L 35.304688 512 L 176.519531 512 L 176.519531 370.78125 C 176.519531 331.789062 208.132812 300.175781 247.128906 300.175781 L 247.128906 238.390625 Z M 35.304688 238.390625 " style=" stroke:none;fill-rule:nonzero;fill:rgb(70.588235%,72.54902%,94.901961%);fill-opacity:1;" />
</g>
</svg>