<?xml version="1.0" encoding="iso-8859-1"?>
<!-- Generator: Adobe Illustrator 19.0.0, SVG Export Plug-In . SVG Version: 6.00 Build 0)  -->
<svg version="1.1" id="Capa_1" xmlns="http://www.w3.org/2000/svg" xmlns:xlink="http://www.w3.org/1999/xlink" x="0px" y="0px"
	 viewBox="0 0 512 512" style="enable-background:new 0 0 512 512;" xml:space="preserve">
<path style="fill:#17ACE8;" d="M256,0C115.3,0,0,115.3,0,256c0,45.601,12.299,91.601,36,130.901l-35.099,105.3
	c-1.802,5.4-0.601,11.398,3.6,15.298c3.9,4.2,9.899,5.402,15.298,3.6L125.099,476c39.3,23.701,85.3,36,130.901,36
	c140.7,0,256-115.3,256-256S396.7,0,256,0z"/>
<path style="fill:#1689FC;" d="M512,256c0,140.7-115.3,256-256,256V0C396.7,0,512,115.3,512,256z"/>
<g>
	<path style="fill:#CAE8F9;" d="M256,362c-24.901,0-45,20.099-45,45s20.099,45,45,45s45-20.099,45-45S280.901,362,256,362z"/>
	<path style="fill:#CAE8F9;" d="M256,76h-1.5c-48.6,0-88.5,39.901-88.5,88.5c0,16.8,13.5,30,30,30s30-13.2,30-30
		c0-15.601,12.9-28.5,28.5-28.5h1.5c16.8,0.901,30,14.7,30,31.5c0,9.901-1.5,17.701-9.3,25.201l-20.7,21L243.701,226
		C232.301,237.4,226,252.4,226,268.299V302c0,16.5,13.5,30,30,30s30-13.5,30-30v-33.701l33.3-32.999
		c17.401-17.701,26.7-39.6,26.7-67.8C346,117.7,305.799,76.901,256,76z"/>
</g>
<g>
	<path style="fill:#B7E0F6;" d="M301,407c0,24.901-20.099,45-45,45v-90C280.901,362,301,382.099,301,407z"/>
	<path style="fill:#B7E0F6;" d="M346,167.5c0,28.2-9.3,50.099-26.7,67.8L286,268.299V302c0,16.5-13.5,30-30,30V213.701l20.7-21
		c7.8-7.5,9.3-15.3,9.3-25.201c0-16.8-13.2-30.599-30-31.5V76C305.799,76.901,346,117.7,346,167.5z"/>
</g>
<g>
</g>
<g>
</g>
<g>
</g>
<g>
</g>
<g>
</g>
<g>
</g>
<g>
</g>
<g>
</g>
<g>
</g>
<g>
</g>
<g>
</g>
<g>
</g>
<g>
</g>
<g>
</g>
<g>
</g>
</svg>
